# xmcd CD database file
#
# Track frame offsets:
#	150
#	74430
#	98466
#
# Disc length: 1585 seconds
#
# Revision: 0
# Processed by: cddbd v1.5.1PL0 Copyright (c) Steve Scherf et al.
# Submitted via: CDex 1.51
#
DISCID=1d062f03
DTITLE=Various Artist - 「つよきす」 ドラマ＆スペシャルCD
DYEAR=2005
DGENRE=Game
TTITLE0=録り下ろしドラマ 「桃色遊戯・王様ゲーム」
TTITLE1=怜奈/Isolation
TTITLE2=KOTOKO/Mighty Heart 〜ある日のケンカ、いつもの恋心〜
EXTD=YEAR: 2005
EXTT0=
EXTT1=
EXTT2=
PLAYORDER=
